# xmcd CD database file
#
# Track frame offsets:
#	150
#	6669
#	28013
#	48759
#	65880
#	82091
#	105643
#	123997
#	139574
#	150749
#	165043
#	185023
#	197447
#	210796
#	230243
#	248446
#	266049
#	277629
#	297985
#
# Disc length: 4236 seconds
#
# Revision: 1
# Processed by: cddbd v1.5.2PL0 Copyright (c) Steve Scherf et al.
# Submitted via: CDex 1.70beta1
#
DISCID=03108a13
DTITLE=Benko Dixieland Band - 50 Years Anniversary Concert
DYEAR=1900
DGENRE=Jazz
TTITLE0=When It's Sleepy Time Down South
TTITLE1=Just a Little to Stay Here
TTITLE2=Bag's Groove
TTITLE3=Down by the Riverside
TTITLE4=Yours is My Heart Alone
TTITLE5=St. James Infirmary Blues
TTITLE6=Ory's Creole Trombone
TTITLE7=Just a Gigolo
TTITLE8=Coney Island Washboard
TTITLE9=Libertango
TTITLE10=Music, Maestro, Please
TTITLE11=Petite Fleur
TTITLE12=Hello, Dolly
TTITLE13=Chewing Gum
TTITLE14=Go down Moses
TTITLE15=Back Home Again in Indiana
TTITLE16=On a Slow Boat to China
TTITLE17=What a Wonderful World
TTITLE18=One More Saints
EXTD=
EXTT0=
EXTT1=
EXTT2=
EXTT3=
EXTT4=
EXTT5=
EXTT6=
EXTT7=
EXTT8=
EXTT9=
EXTT10=
EXTT11=
EXTT12=
EXTT13=
EXTT14=
EXTT15=
EXTT16=
EXTT17=
EXTT18=
PLAYORDER=
